<svg xmlns="http://www.w3.org/2000/svg">
    <symbol id="baseline-add_circle-24px" viewBox="0 0 24 24">
        <path d="M0 0h24v24H0z" fill="none"></path>
        <path d="M12 2C6.48 2 2 6.48 2 12s4.48 10 10 10 10-4.48 10-10S17.52 2 12 2zm5 11h-4v4h-2v-4H7v-2h4V7h2v4h4v2z"></path>
    </symbol>
    <symbol id="baseline-arrow_back-24px" viewBox="0 0 24 24">
        <path d="M0 0h24v24H0z" fill="none"></path>
        <path d="M20 11H7.83l5.59-5.59L12 4l-8 8 8 8 1.41-1.41L7.83 13H20v-2z"></path>
    </symbol>
    <symbol id="baseline-arrow_forward_ios-24px" viewBox="0 0 24 24">
        <path d="M5.88 4.12L13.76 12l-7.88 7.88L8 22l10-10L8 2z"></path>
        <path fill="none" d="M0 0h24v24H0z"></path>
    </symbol>
    <symbol id="baseline-check_box-24px" viewBox="0 0 24 24">
        <path d="M0 0h24v24H0z" fill="none"></path>
        <path d="M19 3H5c-1.11 0-2 .9-2 2v14c0 1.1.89 2 2 2h14c1.11 0 2-.9 2-2V5c0-1.1-.89-2-2-2zm-9 14l-5-5 1.41-1.41L10 14.17l7.59-7.59L19 8l-9 9z"></path>
    </symbol>
    <symbol id="baseline-check_box_outline_blank-24px" viewBox="0 0 24 24">
        <path d="M19 5v14H5V5h14m0-2H5c-1.1 0-2 .9-2 2v14c0 1.1.9 2 2 2h14c1.1 0 2-.9 2-2V5c0-1.1-.9-2-2-2z"></path>
        <path d="M0 0h24v24H0z" fill="none"></path>
    </symbol>
    <symbol id="baseline-close-24px" viewBox="0 0 24 24">
        <path d="M19 6.41L17.59 5 12 10.59 6.41 5 5 6.41 10.59 12 5 17.59 6.41 19 12 13.41 17.59 19 19 17.59 13.41 12z"></path>
        <path d="M0 0h24v24H0z" fill="none"></path>
    </symbol>
    <symbol id="baseline-date_range-24px" viewBox="0 0 24 24">
        <path d="M9 11H7v2h2v-2zm4 0h-2v2h2v-2zm4 0h-2v2h2v-2zm2-7h-1V2h-2v2H8V2H6v2H5c-1.11 0-1.99.9-1.99 2L3 20c0 1.1.89 2 2 2h14c1.1 0 2-.9 2-2V6c0-1.1-.9-2-2-2zm0 16H5V9h14v11z"></path>
        <path fill="none" d="M0 0h24v24H0z"></path>
    </symbol>
    <symbol id="baseline-dehaze-24px" viewBox="0 0 24 24">
        <path d="M2 15.5v2h20v-2H2zm0-5v2h20v-2H2zm0-5v2h20v-2H2z"></path>
        <path d="M0 0h24v24H0z" fill="none"></path>
    </symbol>
    <symbol id="baseline-edit-24px" viewBox="0 0 24 24">
        <path d="M3 17.25V21h3.75L17.81 9.94l-3.75-3.75L3 17.25zM20.71 7.04c.39-.39.39-1.02 0-1.41l-2.34-2.34c-.39-.39-1.02-.39-1.41 0l-1.83 1.83 3.75 3.75 1.83-1.83z"></path>
        <path d="M0 0h24v24H0z" fill="none"></path>
    </symbol>
    <symbol id="baseline-filter_list-24px" viewBox="0 0 24 24">
        <path d="M10 18h4v-2h-4v2zM3 6v2h18V6H3zm3 7h12v-2H6v2z"></path>
        <path d="M0 0h24v24H0z" fill="none"></path>
    </symbol>
    <symbol id="baseline-forward-24px" viewBox="0 0 24 24">
        <path d="M12 8V4l8 8-8 8v-4H4V8z"></path>
        <path d="M0 0h24v24H0z" fill="none"></path>
    </symbol>
    <symbol id="baseline-help-24px" viewBox="0 0 24 24">
        <path d="M0 0h24v24H0z" fill="none"></path>
        <path d="M12 2C6.48 2 2 6.48 2 12s4.48 10 10 10 10-4.48 10-10S17.52 2 12 2zm1 17h-2v-2h2v2zm2.07-7.75l-.9.92C13.45 12.9 13 13.5 13 15h-2v-.5c0-1.1.45-2.1 1.17-2.83l1.24-1.26c.37-.36.59-.86.59-1.41 0-1.1-.9-2-2-2s-2 .9-2 2H8c0-2.21 1.79-4 4-4s4 1.79 4 4c0 .88-.36 1.68-.93 2.25z"></path>
    </symbol>
    <symbol id="baseline-label_off-24px" viewBox="0 0 24 24">
        <path fill="none" d="M0 0h24v24H0V0z"></path>
        <path d="M3.25 2.75l17 17L19 21l-2-2H5c-1.1 0-2-.9-2-2V7c0-.55.23-1.05.59-1.41L2 4l1.25-1.25zM22 12l-4.37-6.16C17.27 5.33 16.67 5 16 5H8l11 11 3-4z"></path>
    </symbol>
    <symbol id="baseline-language-24px" viewBox="0 0 24 24">
        <path d="M0 0h24v24H0z" fill="none"></path>
        <path d="M11.99 2C6.47 2 2 6.48 2 12s4.47 10 9.99 10C17.52 22 22 17.52 22 12S17.52 2 11.99 2zm6.93 6h-2.95c-.32-1.25-.78-2.45-1.38-3.56 1.84.63 3.37 1.91 4.33 3.56zM12 4.04c.83 1.2 1.48 2.53 1.91 3.96h-3.82c.43-1.43 1.08-2.76 1.91-3.96zM4.26 14C4.1 13.36 4 12.69 4 12s.1-1.36.26-2h3.38c-.08.66-.14 1.32-.14 2 0 .68.06 1.34.14 2H4.26zm.82 2h2.95c.32 1.25.78 2.45 1.38 3.56-1.84-.63-3.37-1.9-4.33-3.56zm2.95-8H5.08c.96-1.66 2.49-2.93 4.33-3.56C8.81 5.55 8.35 6.75 8.03 8zM12 19.96c-.83-1.2-1.48-2.53-1.91-3.96h3.82c-.43 1.43-1.08 2.76-1.91 3.96zM14.34 14H9.66c-.09-.66-.16-1.32-.16-2 0-.68.07-1.35.16-2h4.68c.09.65.16 1.32.16 2 0 .68-.07 1.34-.16 2zm.25 5.56c.6-1.11 1.06-2.31 1.38-3.56h2.95c-.96 1.65-2.49 2.93-4.33 3.56zM16.36 14c.08-.66.14-1.32.14-2 0-.68-.06-1.34-.14-2h3.38c.16.64.26 1.31.26 2s-.1 1.36-.26 2h-3.38z"></path>
    </symbol>
    <symbol id="baseline-library_add-24px" viewBox="0 0 24 24">
        <path d="M0 0h24v24H0z" fill="none"></path>
        <path d="M4 6H2v14c0 1.1.9 2 2 2h14v-2H4V6zm16-4H8c-1.1 0-2 .9-2 2v12c0 1.1.9 2 2 2h12c1.1 0 2-.9 2-2V4c0-1.1-.9-2-2-2zm-1 9h-4v4h-2v-4H9V9h4V5h2v4h4v2z"></path>
    </symbol>
    <symbol id="baseline-list_alt-24px" viewBox="0 0 24 24">
        <path d="M19 5v14H5V5h14m1.1-2H3.9c-.5 0-.9.4-.9.9v16.2c0 .4.4.9.9.9h16.2c.4 0 .9-.5.9-.9V3.9c0-.5-.5-.9-.9-.9zM11 7h6v2h-6V7zm0 4h6v2h-6v-2zm0 4h6v2h-6zM7 7h2v2H7zm0 4h2v2H7zm0 4h2v2H7z"></path>
        <path fill="none" d="M0 0h24v24H0z"></path>
    </symbol>
    <symbol id="baseline-menu-24px" viewBox="0 0 24 24">
        <path d="M0 0h24v24H0z" fill="none"></path>
        <path d="M3 18h18v-2H3v2zm0-5h18v-2H3v2zm0-7v2h18V6H3z"></path>
    </symbol>
    <symbol id="baseline-more_vert-24px" viewBox="0 0 24 24">
        <path d="M0 0h24v24H0z" fill="none"></path>
        <path d="M12 8c1.1 0 2-.9 2-2s-.9-2-2-2-2 .9-2 2 .9 2 2 2zm0 2c-1.1 0-2 .9-2 2s.9 2 2 2 2-.9 2-2-.9-2-2-2zm0 6c-1.1 0-2 .9-2 2s.9 2 2 2 2-.9 2-2-.9-2-2-2z"></path>
    </symbol>
    <symbol id="baseline-navigate_next-24px" viewBox="0 0 24 24">
        <path d="M10 6L8.59 7.41 13.17 12l-4.58 4.59L10 18l6-6z"></path>
        <path d="M0 0h24v24H0z" fill="none"></path>
    </symbol>
    <symbol id="baseline-note_add-24px" viewBox="0 0 24 24">
        <path d="M0 0h24v24H0z" fill="none"></path>
        <path d="M14 2H6c-1.1 0-1.99.9-1.99 2L4 20c0 1.1.89 2 1.99 2H18c1.1 0 2-.9 2-2V8l-6-6zm2 14h-3v3h-2v-3H8v-2h3v-3h2v3h3v2zm-3-7V3.5L18.5 9H13z"></path>
    </symbol>
    <symbol id="baseline-notifications-24px" viewBox="0 0 24 24" xmlns="http://www.w3.org/2000/svg">
      <path d="M12 22c1.1 0 2-.9 2-2h-4c0 1.1.89 2 2 2zm6-6v-5c0-3.07-1.64-5.64-4.5-6.32V4c0-.83-.67-1.5-1.5-1.5s-1.5.67-1.5 1.5v.68C7.63 5.36 6 7.92 6 11v5l-2 2v1h16v-1l-2-2z"/>
    </symbol>
    <symbol id="baseline-notifications_active-24px" viewBox="0 0 24 24" xmlns="http://www.w3.org/2000/svg">
      <path d="M0 0h24v24H0z" fill="none"/>
      <path d="M7.58 4.08L6.15 2.65C3.75 4.48 2.17 7.3 2.03 10.5h2c.15-2.65 1.51-4.97 3.55-6.42zm12.39 6.42h2c-.15-3.2-1.73-6.02-4.12-7.85l-1.42 1.43c2.02 1.45 3.39 3.77 3.54 6.42zM18 11c0-3.07-1.64-5.64-4.5-6.32V4c0-.83-.67-1.5-1.5-1.5s-1.5.67-1.5 1.5v.68C7.63 5.36 6 7.92 6 11v5l-2 2v1h16v-1l-2-2v-5zm-6 11c.14 0 .27-.01.4-.04.65-.14 1.18-.58 1.44-1.18.1-.24.15-.5.15-.78h-4c.01 1.1.9 2 2.01 2z"/>
    </symbol>
    <symbol id="baseline-notifications_none-24px" viewBox="0 0 24 24" xmlns="http://www.w3.org/2000/svg">
      <path d="M0 0h24v24H0z" fill="none"/>
      <path d="M12 22c1.1 0 2-.9 2-2h-4c0 1.1.9 2 2 2zm6-6v-5c0-3.07-1.63-5.64-4.5-6.32V4c0-.83-.67-1.5-1.5-1.5s-1.5.67-1.5 1.5v.68C7.64 5.36 6 7.92 6 11v5l-2 2v1h16v-1l-2-2zm-2 1H8v-6c0-2.48 1.51-4.5 4-4.5s4 2.02 4 4.5v6z"/>
    </symbol>
    <symbol id="baseline-notifications_off-24px" viewBox="0 0 24 24" xmlns="http://www.w3.org/2000/svg">
      <path d="M0 0h24v24H0z" fill="none"/>
      <path d="M20 18.69L7.84 6.14 5.27 3.49 4 4.76l2.8 2.8v.01c-.52.99-.8 2.16-.8 3.42v5l-2 2v1h13.73l2 2L21 19.72l-1-1.03zM12 22c1.11 0 2-.89 2-2h-4c0 1.11.89 2 2 2zm6-7.32V11c0-3.08-1.64-5.64-4.5-6.32V4c0-.83-.67-1.5-1.5-1.5s-1.5.67-1.5 1.5v.68c-.15.03-.29.08-.42.12-.1.03-.2.07-.3.11h-.01c-.01 0-.01 0-.02.01-.23.09-.46.2-.68.31 0 0-.01 0-.01.01L18 14.68z"/>
    </symbol>
    <symbol id="baseline-person-24px" viewBox="0 0 24 24">
        <path d="M12 12c2.21 0 4-1.79 4-4s-1.79-4-4-4-4 1.79-4 4 1.79 4 4 4zm0 2c-2.67 0-8 1.34-8 4v2h16v-2c0-2.66-5.33-4-8-4z"></path>
        <path d="M0 0h24v24H0z" fill="none"></path>
    </symbol>
    <symbol id="baseline-person_outline-24px" xmlns="http://www.w3.org/2000/svg" viewBox="0 0 24 24">
      <path d="M12 5.9c1.16 0 2.1.94 2.1 2.1s-.94 2.1-2.1 2.1S9.9 9.16 9.9 8s.94-2.1 2.1-2.1m0 9c2.97 0 6.1 1.46 6.1 2.1v1.1H5.9V17c0-.64 3.13-2.1 6.1-2.1M12 4C9.79 4 8 5.79 8 8s1.79 4 4 4 4-1.79 4-4-1.79-4-4-4zm0 9c-2.67 0-8 1.34-8 4v3h16v-3c0-2.66-5.33-4-8-4z"/>
      <path d="M0 0h24v24H0z" fill="none"/>
    </symbol>
    <symbol id="baseline-power_settings_new-24px" xmlns="http://www.w3.org/2000/svg" viewBox="0 0 24 24">
      <path fill="none" d="M0 0h24v24H0z"/>
      <path d="M13 3h-2v10h2V3zm4.83 2.17l-1.42 1.42C17.99 7.86 19 9.81 19 12c0 3.87-3.13 7-7 7s-7-3.13-7-7c0-2.19 1.01-4.14 2.58-5.42L6.17 5.17C4.23 6.82 3 9.26 3 12c0 4.97 4.03 9 9 9s9-4.03 9-9c0-2.74-1.23-5.18-3.17-6.83z"/>
    </symbol>
    <symbol id="baseline-radio_button_checked-24px" viewBox="0 0 24 24">
        <path d="M12 7c-2.76 0-5 2.24-5 5s2.24 5 5 5 5-2.24 5-5-2.24-5-5-5zm0-5C6.48 2 2 6.48 2 12s4.48 10 10 10 10-4.48 10-10S17.52 2 12 2zm0 18c-4.42 0-8-3.58-8-8s3.58-8 8-8 8 3.58 8 8-3.58 8-8 8z"></path>
        <path d="M0 0h24v24H0z" fill="none"></path>
    </symbol>
    <symbol id="baseline-radio_button_unchecked-24px" viewBox="0 0 24 24">
        <path d="M12 2C6.48 2 2 6.48 2 12s4.48 10 10 10 10-4.48 10-10S17.52 2 12 2zm0 18c-4.42 0-8-3.58-8-8s3.58-8 8-8 8 3.58 8 8-3.58 8-8 8z"></path>
        <path d="M0 0h24v24H0z" fill="none"></path>
    </symbol>
    <symbol id="baseline-save-24px" viewBox="0 0 24 24">
        <path d="M0 0h24v24H0z" fill="none"></path>
        <path d="M17 3H5c-1.11 0-2 .9-2 2v14c0 1.1.89 2 2 2h14c1.1 0 2-.9 2-2V7l-4-4zm-5 16c-1.66 0-3-1.34-3-3s1.34-3 3-3 3 1.34 3 3-1.34 3-3 3zm3-10H5V5h10v4z"></path>
    </symbol>
    <symbol id="baseline-search-24px" viewBox="0 0 24 24">
        <path d="M15.5 14h-.79l-.28-.27C15.41 12.59 16 11.11 16 9.5 16 5.91 13.09 3 9.5 3S3 5.91 3 9.5 5.91 16 9.5 16c1.61 0 3.09-.59 4.23-1.57l.27.28v.79l5 4.99L20.49 19l-4.99-5zm-6 0C7.01 14 5 11.99 5 9.5S7.01 5 9.5 5 14 7.01 14 9.5 11.99 14 9.5 14z"></path>
        <path d="M0 0h24v24H0z" fill="none"></path>
    </symbol>
    <symbol id="baseline-settings-20px" viewBox="0 0 20 20">
        <path fill="none" d="M0 0h20v20H0V0z"></path>
        <path d="M15.95 10.78c.03-.25.05-.51.05-.78s-.02-.53-.06-.78l1.69-1.32c.15-.12.19-.34.1-.51l-1.6-2.77c-.1-.18-.31-.24-.49-.18l-1.99.8c-.42-.32-.86-.58-1.35-.78L12 2.34c-.03-.2-.2-.34-.4-.34H8.4c-.2 0-.36.14-.39.34l-.3 2.12c-.49.2-.94.47-1.35.78l-1.99-.8c-.18-.07-.39 0-.49.18l-1.6 2.77c-.1.18-.06.39.1.51l1.69 1.32c-.04.25-.07.52-.07.78s.02.53.06.78L2.37 12.1c-.15.12-.19.34-.1.51l1.6 2.77c.1.18.31.24.49.18l1.99-.8c.42.32.86.58 1.35.78l.3 2.12c.04.2.2.34.4.34h3.2c.2 0 .37-.14.39-.34l.3-2.12c.49-.2.94-.47 1.35-.78l1.99.8c.18.07.39 0 .49-.18l1.6-2.77c.1-.18.06-.39-.1-.51l-1.67-1.32zM10 13c-1.65 0-3-1.35-3-3s1.35-3 3-3 3 1.35 3 3-1.35 3-3 3z"></path>
    </symbol>
    <symbol id="baseline-swap_vert-24px" viewBox="0 0 24 24">
        <path d="M16 17.01V10h-2v7.01h-3L15 21l4-3.99h-3zM9 3L5 6.99h3V14h2V6.99h3L9 3z"></path>
        <path d="M0 0h24v24H0z" fill="none"></path>
    </symbol>
    <symbol id="baseline-undo-24px" viewBox="0 0 24 24">
        <path d="M0 0h24v24H0z" fill="none"></path>
        <path d="M12.5 8c-2.65 0-5.05.99-6.9 2.6L2 7v9h9l-3.62-3.62c1.39-1.16 3.16-1.88 5.12-1.88 3.54 0 6.55 2.31 7.6 5.5l2.37-.78C21.08 11.03 17.15 8 12.5 8z"></path>
    </symbol>
    <symbol id="baseline-unfold_less-24px" viewBox="0 0 24 24">
        <path d="M0 0h24v24H0z" fill="none"></path>
        <path d="M7.41 18.59L8.83 20 12 16.83 15.17 20l1.41-1.41L12 14l-4.59 4.59zm9.18-13.18L15.17 4 12 7.17 8.83 4 7.41 5.41 12 10l4.59-4.59z"></path>
    </symbol>
    <symbol id="baseline-unfold_more-24px" viewBox="0 0 24 24">
        <path d="M0 0h24v24H0z" fill="none"></path>
        <path d="M12 5.83L15.17 9l1.41-1.41L12 3 7.41 7.59 8.83 9 12 5.83zm0 12.34L8.83 15l-1.41 1.41L12 21l4.59-4.59L15.17 15 12 18.17z"></path>
    </symbol>
    <symbol id="baseline-view_comfy-24px" viewBox="0 0 24 24">
        <path d="M3 9h4V5H3v4zm0 5h4v-4H3v4zm5 0h4v-4H8v4zm5 0h4v-4h-4v4zM8 9h4V5H8v4zm5-4v4h4V5h-4zm5 9h4v-4h-4v4zM3 19h4v-4H3v4zm5 0h4v-4H8v4zm5 0h4v-4h-4v4zm5 0h4v-4h-4v4zm0-14v4h4V5h-4z"></path>
        <path fill="none" d="M0 0h24v24H0z"></path>
    </symbol>
    <symbol id="baseline-shopping_cart-24px" viewBox="0 0 24 24">
        <path d="M7 18c-1.1 0-1.99.9-1.99 2S5.9 22 7 22s2-.9 2-2-.9-2-2-2zM1 2v2h2l3.6 7.59-1.35 2.45c-.16.28-.25.61-.25.96 0 1.1.9 2 2 2h12v-2H7.42c-.14 0-.25-.11-.25-.25l.03-.12.9-1.63h7.45c.75 0 1.41-.41 1.75-1.03l3.58-6.49c.08-.14.12-.31.12-.48 0-.55-.45-1-1-1H5.21l-.94-2H1zm16 16c-1.1 0-1.99.9-1.99 2s.89 2 1.99 2 2-.9 2-2-.9-2-2-2z"/>
        <path d="M0 0h24v24H0z" fill="none"/>
    </symbol>
    <symbol id="baseline-delete-24px" viewBox="0 0 24 24">
        <path d="M6 19c0 1.1.9 2 2 2h8c1.1 0 2-.9 2-2V7H6v12zM19 4h-3.5l-1-1h-5l-1 1H5v2h14V4z"/>
        <path d="M0 0h24v24H0z" fill="none"/></svg>
    </symbol>
</svg>
